<svg width="156" height="156" viewBox="0 0 156 156" fill="none" xmlns="http://www.w3.org/2000/svg">
<rect width="156" height="156" rx="78" fill="#F1B2B2" fill-opacity="0.19"/>
<g filter="url(#filter0_dd_1028_3)">
<path d="M66.7016 97.9439V96.294C66.7337 90.6327 67.2324 86.1199 68.1975 82.7555C69.1948 79.3911 70.6424 76.6736 72.5405 74.6032C74.4385 72.5328 76.7226 70.6565 79.3927 68.9743C81.3873 67.6803 83.1727 66.3378 84.7491 64.9467C86.3254 63.5557 87.5801 62.019 88.513 60.3368C89.4459 58.6223 89.9124 56.7136 89.9124 54.6109C89.9124 52.3787 89.3816 50.4215 88.32 48.7393C87.2584 47.0571 85.8268 45.7631 84.0252 44.8573C82.2559 43.9515 80.2935 43.4986 78.1381 43.4986C76.047 43.4986 74.0685 43.9676 72.2027 44.9058C70.3368 45.8116 68.8087 47.1703 67.6184 48.9819C66.4281 50.7612 65.7847 52.9772 65.6882 55.6299H46C46.1609 49.1598 47.705 43.8221 50.6325 39.6166C53.56 35.3787 57.4365 32.2246 62.2621 30.1541C67.0876 28.0514 72.4118 27 78.2346 27C84.6365 27 90.2984 28.0676 95.2205 30.2027C100.143 32.3054 104.003 35.3625 106.802 39.3739C109.601 43.3853 111 48.2217 111 53.883C111 57.6679 110.373 61.0323 109.118 63.9762C107.896 66.8877 106.174 69.4757 103.955 71.7402C101.735 73.9724 99.1131 75.9943 96.0891 77.8059C93.5476 79.3264 91.4566 80.9115 89.8159 82.5614C88.2074 84.2112 87.001 86.1199 86.1967 88.2873C85.4246 90.4548 85.0225 93.1237 84.9903 96.294V97.9439H66.7016ZM76.2561 129C73.0391 129 70.2885 127.868 68.0045 125.603C65.7525 123.306 64.6427 120.557 64.6748 117.354C64.6427 114.184 65.7525 111.466 68.0045 109.202C70.2885 106.937 73.0391 105.805 76.2561 105.805C79.3123 105.805 81.9985 106.937 84.3148 109.202C86.631 111.466 87.8052 114.184 87.8374 117.354C87.8052 119.489 87.2423 121.446 86.1485 123.226C85.0869 124.972 83.6875 126.38 81.9503 127.447C80.2131 128.482 78.315 129 76.2561 129Z" fill="url(#paint0_linear_1028_3)"/>
<path d="M62.2621 30.1541L61.6706 28.7757C56.5918 30.9548 52.4909 34.288 49.3999 38.7618C46.2664 43.2643 44.6667 48.9071 44.5005 55.5926L44.4622 57.1299H46H65.6882H67.1346L67.1872 55.6844C67.276 53.2434 67.8629 51.3141 68.8651 49.816L68.8652 49.816L68.872 49.8056C69.9208 48.2093 71.2463 47.0375 72.8577 46.2552L72.8671 46.2506L72.8765 46.2459C74.533 45.413 76.2807 44.9986 78.1381 44.9986C80.0763 44.9986 81.8014 45.4039 83.3417 46.1925L83.3417 46.1925L83.3514 46.1974C84.9129 46.9825 86.1374 48.0915 87.0515 49.5398C87.9439 50.954 88.4124 52.6264 88.4124 54.6109C88.4124 56.4809 88.0004 58.1383 87.1982 59.6148C86.3559 61.132 85.2148 62.5352 83.7566 63.822C82.2443 65.1566 80.5216 66.4534 78.5844 67.7107C75.8187 69.454 73.4313 71.4118 71.4348 73.5896C69.3492 75.8646 67.8056 78.7994 66.7593 82.3292L66.7593 82.3292L66.7556 82.3419C65.7368 85.8936 65.2341 90.5604 65.2016 96.2855V96.294V97.9439V99.4439H66.7016H84.9903H86.4903V97.9439V96.3018C86.5219 93.2478 86.9095 90.7609 87.6064 88.8C88.3372 86.8345 89.4277 85.1098 90.8845 83.614C92.4165 82.0745 94.3999 80.5644 96.8592 79.0931L96.86 79.0927C99.9781 77.2246 102.701 75.1281 105.018 72.7979L105.018 72.798L105.026 72.7903C107.377 70.3917 109.204 67.6456 110.5 64.5597C111.846 61.4003 112.5 57.8318 112.5 53.883C112.5 47.9646 111.033 42.8168 108.032 38.5156C105.058 34.2535 100.967 31.0272 95.8137 28.8249C90.6714 26.595 84.8013 25.5 78.2346 25.5C72.2276 25.5 66.6966 26.5855 61.6628 28.779L62.2621 30.1541ZM62.2621 30.1541C67.0876 28.0514 72.4118 27 78.2346 27C84.6365 27 90.2984 28.0676 95.2205 30.2027L46.0633 54.1299C46.4113 48.3303 47.9344 43.4926 50.6325 39.6166C53.56 35.3787 57.4365 32.2246 62.2621 30.1541ZM66.9334 126.653L66.9408 126.661L66.9484 126.668C69.5134 129.212 72.6436 130.5 76.2561 130.5C78.5802 130.5 80.7443 129.912 82.7181 128.736L82.7269 128.731L82.7356 128.725C84.675 127.533 86.2437 125.956 87.4283 124.008C88.6653 121.994 89.3011 119.774 89.3372 117.377L89.3375 117.358L89.3373 117.339C89.301 113.76 87.9576 110.665 85.3634 108.129C82.7854 105.609 79.7295 104.305 76.2561 104.305C72.6436 104.305 69.5134 105.593 66.9483 108.136L66.9408 108.144C64.4116 110.687 63.1422 113.785 63.1748 117.354C63.1423 120.95 64.4078 124.077 66.9334 126.653Z" stroke="white" stroke-width="3"/>
</g>
<defs>
<filter id="filter0_dd_1028_3" x="32.9238" y="14" width="91.0762" height="129" filterUnits="userSpaceOnUse" color-interpolation-filters="sRGB">
<feFlood flood-opacity="0" result="BackgroundImageFix"/>
<feColorMatrix in="SourceAlpha" type="matrix" values="0 0 0 0 0 0 0 0 0 0 0 0 0 0 0 0 0 0 127 0" result="hardAlpha"/>
<feOffset dx="3" dy="6"/>
<feGaussianBlur stdDeviation="2.5"/>
<feComposite in2="hardAlpha" operator="out"/>
<feColorMatrix type="matrix" values="0 0 0 0 0 0 0 0 0 0 0 0 0 0 0 0 0 0 0.25 0"/>
<feBlend mode="normal" in2="BackgroundImageFix" result="effect1_dropShadow_1028_3"/>
<feColorMatrix in="SourceAlpha" type="matrix" values="0 0 0 0 0 0 0 0 0 0 0 0 0 0 0 0 0 0 127 0" result="hardAlpha"/>
<feOffset/>
<feGaussianBlur stdDeviation="5"/>
<feComposite in2="hardAlpha" operator="out"/>
<feColorMatrix type="matrix" values="0 0 0 0 0.916667 0 0 0 0 0.294097 0 0 0 0 0.294097 0 0 0 0.07 0"/>
<feBlend mode="normal" in2="effect1_dropShadow_1028_3" result="effect2_dropShadow_1028_3"/>
<feBlend mode="normal" in="SourceGraphic" in2="effect2_dropShadow_1028_3" result="shape"/>
</filter>
<linearGradient id="paint0_linear_1028_3" x1="79.1642" y1="-5.40074" x2="79.1642" y2="160.444" gradientUnits="userSpaceOnUse">
<stop stop-color="#E837C0"/>
<stop offset="1" stop-color="#F7517E"/>
</linearGradient>
</defs>
</svg>
