<svg width="178" height="174" viewBox="0 0 178 174" fill="none" xmlns="http://www.w3.org/2000/svg">
<path fill-rule="evenodd" clip-rule="evenodd" d="M49 169.619C49 172.038 46.9549 174 44.4322 174C19.893 174 2.38419e-07 154.919 2.38419e-07 131.381C2.38419e-07 128.962 2.04507 127 4.5678 127C7.09052 127 9.13559 128.962 9.13559 131.381C15.2017 145.696 31.1626 160.739 44.4322 165.237C46.9549 165.237 49 167.199 49 169.619Z" fill="url(#paint0_linear_1026_47)"/>
<path fill-rule="evenodd" clip-rule="evenodd" d="M129 169.619C129 172.038 131.045 174 133.568 174C158.107 174 178 154.919 178 131.381C178 128.962 175.955 127 173.432 127C170.909 127 168.864 128.962 168.864 131.381C162.798 145.696 146.837 160.739 133.568 165.237C131.045 165.237 129 167.199 129 169.619Z" fill="url(#paint1_linear_1026_47)"/>
<defs>
<linearGradient id="paint0_linear_1026_47" x1="49" y1="171" x2="2.5" y2="127" gradientUnits="userSpaceOnUse">
<stop stop-color="#89F0F1" stop-opacity="0.74"/>
<stop offset="0.382508" stop-color="#F1569F"/>
<stop offset="0.576559" stop-color="#F1569F"/>
<stop offset="1" stop-color="#D6F9F9"/>
</linearGradient>
<linearGradient id="paint1_linear_1026_47" x1="129" y1="171" x2="175.5" y2="127" gradientUnits="userSpaceOnUse">
<stop stop-color="#89F0F1" stop-opacity="0.74"/>
<stop offset="0.382508" stop-color="#F1569F"/>
<stop offset="0.576559" stop-color="#F1569F"/>
<stop offset="1" stop-color="#D6F9F9"/>
</linearGradient>
</defs>
</svg>
